<svg width="227" height="147" viewBox="0 0 227 147" fill="none" xmlns="http://www.w3.org/2000/svg">
<path d="M116.6 20.1483C118.18 20.1483 119.461 18.8672 119.461 17.287C119.461 15.7068 118.18 14.4258 116.6 14.4258C115.019 14.4258 113.738 15.7068 113.738 17.287C113.738 18.8672 115.019 20.1483 116.6 20.1483Z" fill="#C0D0FC"/>
<path d="M103.388 37.3365C104.848 36.7318 105.541 35.058 104.937 33.598C104.332 32.1381 102.658 31.4448 101.198 32.0495C99.7382 32.6543 99.0449 34.3281 99.6497 35.788C100.254 37.248 101.928 37.9413 103.388 37.3365Z" fill="#C0D0FC"/>
<path d="M145.213 1.43062C145.213 2.22058 144.572 2.86124 143.782 2.86124C142.992 2.86124 142.352 2.22058 142.352 1.43062C142.352 0.640339 142.992 0 143.782 0C144.572 0 145.213 0.640663 145.213 1.43062Z" fill="#C0D0FC"/>
<path d="M212.455 17.8828C212.455 18.673 211.814 19.3134 211.024 19.3134C210.234 19.3134 209.594 18.6727 209.594 17.8828C209.594 17.0928 210.234 16.4521 211.024 16.4521C211.814 16.4521 212.455 17.0925 212.455 17.8828Z" fill="#C0D0FC"/>
<path d="M2.86124 61.6386C2.86124 62.4286 2.22058 63.0692 1.43062 63.0692C0.640664 63.0692 0 62.4286 0 61.6386C0 60.8483 0.640664 60.208 1.43062 60.208C2.22058 60.208 2.86124 60.8487 2.86124 61.6386Z" fill="#C0D0FC"/>
<path d="M49.3573 145.095C49.3573 145.885 48.7167 146.525 47.9267 146.525C47.1368 146.525 46.4961 145.885 46.4961 145.095C46.4961 144.305 47.1368 143.664 47.9267 143.664C48.7167 143.664 49.3573 144.305 49.3573 145.095Z" fill="#C0D0FC"/>
<path d="M227.002 85.9599C227.002 86.7502 226.361 87.3905 225.571 87.3905C224.781 87.3905 224.141 86.7499 224.141 85.9599C224.141 85.17 224.781 84.5293 225.571 84.5293C226.361 84.5293 227.002 85.17 227.002 85.9599Z" fill="#C0D0FC"/>
<path d="M194.928 14.3065C196.508 14.3065 197.789 13.0254 197.789 11.4452C197.789 9.86501 196.508 8.58398 194.928 8.58398C193.347 8.58398 192.066 9.86501 192.066 11.4452C192.066 13.0254 193.347 14.3065 194.928 14.3065Z" fill="#C0D0FC"/>
<path d="M217.959 115.392C219.466 114.916 220.302 113.309 219.826 111.802C219.35 110.295 217.743 109.459 216.236 109.935C214.729 110.41 213.893 112.017 214.369 113.524C214.845 115.031 216.452 115.867 217.959 115.392Z" fill="#C0D0FC"/>
<path d="M30.1475 134.613C31.2078 133.441 31.1175 131.632 29.9458 130.571C28.774 129.511 26.9646 129.601 25.9043 130.773C24.8439 131.945 24.9342 133.754 26.106 134.814C27.2777 135.875 29.0872 135.784 30.1475 134.613Z" fill="#C0D0FC"/>
<path d="M46.7297 69.2644C47.8471 68.147 47.8471 66.3354 46.7297 65.218C45.6123 64.1007 43.8007 64.1007 42.6833 65.218C41.566 66.3354 41.566 68.147 42.6833 69.2644C43.8007 70.3818 45.6123 70.3818 46.7297 69.2644Z" fill="#C0D0FC"/>
<path d="M170.154 11.049C170.154 15.8348 164.46 19.7155 157.433 19.7155C155.914 19.7155 154.458 19.5327 153.105 19.2001L148.717 21.8179L150.443 18.2891C146.991 16.74 144.711 14.0757 144.711 11.0487C144.711 6.2625 150.408 2.38477 157.433 2.38477C164.461 2.38509 170.154 6.26282 170.154 11.049Z" fill="#FBBD73"/>
<path d="M154.354 11.0287C154.354 12.214 153.394 13.1747 152.208 13.1747C151.023 13.1747 150.062 12.214 150.062 11.0287C150.062 9.84348 151.023 8.88281 152.208 8.88281C153.394 8.88249 154.354 9.84348 154.354 11.0287Z" fill="white"/>
<path d="M159.577 11.0883C159.577 12.2736 158.616 13.2342 157.431 13.2342C156.246 13.2342 155.285 12.2736 155.285 11.0883C155.285 9.90305 156.246 8.94238 157.431 8.94238C158.616 8.94238 159.577 9.90305 159.577 11.0883Z" fill="white"/>
<path d="M164.979 11.0287C164.979 12.214 164.019 13.1747 162.833 13.1747C161.648 13.1747 160.688 12.214 160.688 11.0287C160.688 9.84348 161.648 8.88281 162.833 8.88281C164.019 8.88249 164.979 9.84348 164.979 11.0287Z" fill="white"/>
<path d="M178.179 143.778H69.7562C64.9038 143.778 60.9336 139.808 60.9336 134.955V55.3714C60.9336 50.5191 64.9038 46.5488 69.7562 46.5488H178.179C183.032 46.5488 187.002 50.5191 187.002 55.3714V134.955C187.002 139.808 183.032 143.778 178.179 143.778Z" fill="#6C93F9"/>
<path d="M184.454 55.1758V135.151C184.454 138.381 181.813 141.022 178.583 141.022H69.3555C66.1256 141.022 63.4844 138.381 63.4844 135.151V55.1758C63.4844 51.9459 66.1256 49.3047 69.3555 49.3047H178.583C181.813 49.3047 184.454 51.9459 184.454 55.1758Z" fill="#E8EFFC"/>
<path d="M184.454 73.6404V111.918C167.805 106.543 142.759 100.613 117.713 102.758C94.4887 104.749 75.8069 109.768 63.4844 113.987V56.2598C77.2369 64.9655 100.068 75.875 130.38 78.0397C155.746 79.851 173.217 77.0135 184.454 73.6404Z" fill="#D2E1F7"/>
<path d="M184.45 131.802V135.151C184.45 138.38 181.812 141.022 178.579 141.022H69.3516C66.1223 141.022 63.4805 138.38 63.4805 135.151V131.802H184.45Z" fill="#231F20"/>
<path d="M75.0821 135.915L72.0437 134.213C71.7094 134.026 71.2969 134.268 71.2969 134.651V138.176C71.2969 138.565 71.7224 138.806 72.0566 138.606L75.0951 136.783C75.4255 136.584 75.4183 136.103 75.0821 135.915Z" fill="white"/>
<path d="M79.0859 136.413H178.169" stroke="white" stroke-width="0.920005" stroke-miterlimit="10" stroke-linecap="round"/>
<path d="M79.0859 136.413H114.242" stroke="#F76DB6" stroke-width="1.83998" stroke-miterlimit="10" stroke-linecap="round"/>
<path d="M115.298 138.975C116.713 138.392 117.388 136.772 116.805 135.357C116.223 133.942 114.603 133.267 113.188 133.849C111.772 134.432 111.097 136.052 111.68 137.467C112.263 138.882 113.882 139.557 115.298 138.975Z" fill="#F76DB6"/>
<path d="M101.641 50.8496H70.7423C67.3293 50.8496 64.5625 53.6164 64.5625 57.0294V93.7991L66.9054 61.2599C67.1602 57.722 69.8767 54.8559 73.3958 54.4119L101.641 50.8496Z" fill="white"/>
<path d="M158.401 131.802H112.652C112.815 130.344 113 128.793 113.204 127.297C113.918 122.052 116.304 107.746 119.64 100.83C119.64 100.83 134.186 102.498 144.202 98.4443C152.848 109.015 156.765 123.454 158.401 131.802Z" fill="#2F3B7F"/>
<path d="M109.449 80.7411C108.973 82.7082 108.376 83.2447 110.463 84.2583C112.549 85.2719 118.331 86.1063 120.06 85.3313C121.789 84.5562 120.179 80.4432 119.762 80.5026C119.345 80.5623 109.449 80.7411 109.449 80.7411Z" fill="#4B5059"/>
<path d="M160.441 84.9449C160.435 84.9547 160.425 84.9644 160.418 84.9741C158.925 86.7624 154.813 87.418 152.726 87.2979C152.175 87.2655 151.763 87.2395 151.441 87.1519C150.542 86.915 150.351 86.2237 149.867 83.7214C149.867 83.7214 159.403 80.6219 159.584 80.5018C159.763 80.3817 161.885 83.1566 160.441 84.9449Z" fill="#4B5059"/>
<path d="M160.893 81.9133C159.504 83.5134 156.181 84.685 153.425 84.9901C152.079 85.1426 150.865 85.0874 150.083 84.7726C147.697 83.8217 147.379 80.8001 147.379 80.8001C147.379 80.8001 145.474 88.1123 144.997 92.0848C144.52 96.0605 148.015 100.033 146.743 101.782C140.226 106.871 127.033 106.076 122.265 103.85C117.494 101.623 118.767 101.782 119.085 98.1279C119.403 94.4702 120.039 93.8341 116.858 83.1856C112.01 82.7085 110.5 83.0265 107.956 80.8001C107.54 80.4366 107.278 79.9174 107.138 79.278C106.414 76.0065 108.878 69.6356 110.341 65.3807C112.091 60.295 115.427 62.2001 117.017 62.0411C118.608 61.8821 121.185 59.3181 126.079 57.5915C128.782 56.6373 135.776 55.6831 138.636 56.3192C141.498 56.9554 147.538 62.2001 150.242 61.564C152.945 60.9279 155.804 61.0869 157.872 67.2891C159.939 73.488 162.958 79.5279 160.893 81.9133Z" fill="#82916B"/>
<path d="M128.069 16.1815C124.731 13.5585 119.405 14.9099 117.816 18.4865C116.226 22.063 118.611 24.2093 115.431 27.5473C112.252 30.8853 108.278 35.4955 112.57 39.7874C116.862 44.0796 116.862 43.9206 115.511 46.2255C114.16 48.5305 112.491 53.0609 116.465 55.5249C120.439 57.9889 125.049 56.1607 128.625 55.7634C132.202 55.3659 138.004 55.6839 141.899 56.7173C145.793 57.7507 151.357 56.002 152.788 51.3125C154.218 46.6231 150.324 45.272 151.596 39.3106C152.867 33.3496 152.232 28.6602 148.973 26.673C145.714 24.6861 144.76 23.3346 143.568 19.599C142.376 15.8635 139.753 13.0814 136.415 12.8432C133.077 12.605 129.579 13.0022 128.069 16.1815Z" fill="#232965"/>
<path d="M129.059 52.9022C127.074 53.8194 124.822 56.1097 124.766 58.625C124.729 60.2809 126.133 62.4813 127.27 62.0824C128.345 61.7053 129.476 59.2212 130.429 60.5324C131.383 61.8439 132.277 64.4072 135.377 62.2016C138.477 59.9959 140.444 57.6114 139.669 55.5846C138.894 53.5578 135.377 49.9812 129.059 52.9022Z" fill="#4B5059"/>
<path opacity="0.45" d="M129.3 50.5178C125.325 52.3522 120.358 53.8562 119.285 51.5908C118.212 49.3254 117.973 45.1527 118.331 43.0068C118.689 40.8608 115.708 38.5955 114.635 35.8533C113.562 33.1112 114.635 30.0114 116.423 28.9384C118.212 27.8655 119.404 27.5078 119.523 25.7196C119.642 23.9313 121.073 22.9774 122.981 22.8583C124.888 22.7392 126.557 21.7853 126.677 19.9971C127.75 24.5275 129.061 25.4813 131.446 24.6469C133.83 23.8122 136.93 24.4084 137.645 27.8658C138.36 31.3232 138.241 34.423 141.103 33.8268C143.964 33.2306 145.752 35.1383 145.156 38.2381C144.56 41.3379 143.01 42.1723 144.56 43.9609C146.11 45.7492 149.448 47.0607 147.064 49.922C144.679 52.7832 140.864 52.9026 138.718 50.8758C136.572 48.8487 130.85 49.8025 129.3 50.5178Z" fill="#202A67"/>
<path d="M143.01 38.9923C142.614 41.4557 141.105 43.046 138.878 41.9328C138.164 43.6821 136.334 50.9942 136.574 54.3339C136.175 56.0832 134.584 59.1827 130.849 59.6598C127.113 60.1368 127.749 56.0021 127.749 56.0021C127.749 56.0021 128.194 54.3079 128.019 52.2535C127.96 51.5655 127.83 50.8385 127.59 50.1212C125.656 50.462 124.108 49.9622 122.875 48.8782C119.243 45.6781 118.311 37.4118 118.133 30.6481C119.165 30.567 120.119 30.2489 120.518 28.1848C120.914 26.1174 121.391 25.0853 122.745 24.8452C124.095 24.6083 125.127 25.6403 125.844 22.3818C126.003 25.1632 126.558 25.8772 128.148 26.4355C129.739 26.9905 130.612 25.1632 133.075 26.1174C135.538 27.0716 134.902 30.012 135.62 33.6665C136.334 37.3242 139.037 36.529 140.627 35.7339C142.218 34.9387 143.409 36.529 143.01 38.9923Z" fill="#FFD2D5"/>
<path d="M121.788 38.1776C124.027 38.1776 125.842 36.3627 125.842 34.124C125.842 31.8852 124.027 30.0703 121.788 30.0703C119.549 30.0703 117.734 31.8852 117.734 34.124C117.734 36.3627 119.549 38.1776 121.788 38.1776Z" stroke="#231F20" stroke-width="0.459986" stroke-miterlimit="10"/>
<path d="M135.2 34.9651C135.678 32.778 134.293 30.6174 132.106 30.1392C129.919 29.661 127.758 31.0463 127.28 33.2334C126.802 35.4204 128.187 37.581 130.374 38.0592C132.561 38.5374 134.722 37.1521 135.2 34.9651Z" stroke="#231F20" stroke-width="0.459986" stroke-miterlimit="10"/>
<path d="M124.234 44.0798C126.023 44.3183 129.242 44.0201 130.017 41.6953" stroke="#F99BA4" stroke-width="0.243413" stroke-miterlimit="10" stroke-linecap="round"/>
<path d="M129.121 41.457C129.956 41.457 130.313 41.8147 130.492 42.2915" stroke="#F99BA4" stroke-width="0.243413" stroke-miterlimit="10" stroke-linecap="round"/>
<path opacity="0.68" d="M142.373 37.8801C142.055 36.6085 141.499 36.3304 140.466 37.2443C139.432 38.1582 139.194 39.7878 139.79 40.4236C140.386 41.0594 141.181 40.7813 141.3 39.9069C141.419 39.0326 141.141 37.6815 140.585 38.1582C141.062 37.0058 141.777 36.8867 142.373 37.8801Z" fill="#FFD2D5"/>
<path d="M133.191 28.6212C131.731 27.7692 130.409 27.9455 129.376 28.5021C128.343 29.0584 128.263 30.0518 129.257 29.7341C130.251 29.416 131.085 29.1778 132.158 29.6546C133.231 30.1313 133.509 30.0518 133.668 29.7341C133.827 29.416 133.668 28.8993 133.191 28.6212Z" fill="#231F20"/>
<path d="M120.2 29.5348C121.279 29.1749 122.147 28.9785 123.14 29.4157C124.134 29.8529 124.332 29.9324 124.531 29.4952C124.73 29.0581 124.492 28.3032 123.22 28.1042C121.948 27.9056 121.193 27.8261 120.359 28.3028C119.524 28.7796 119.484 29.7734 120.2 29.5348Z" fill="#231F20"/>
<path d="M132.52 34.4428C132.52 35.0244 132.057 35.496 131.486 35.496C130.916 35.496 130.453 35.0244 130.453 34.4428C130.453 33.8612 130.916 33.3896 131.486 33.3896C132.057 33.3896 132.52 33.8612 132.52 34.4428Z" fill="#231F20"/>
<path d="M123.239 34.4428C123.239 35.0244 122.776 35.496 122.205 35.496C121.635 35.496 121.172 35.0244 121.172 34.4428C121.172 33.8612 121.634 33.3896 122.205 33.3896C122.776 33.39 123.239 33.8612 123.239 34.4428Z" fill="#231F20"/>
<path d="M125.84 33.906C126.396 33.5484 127.111 33.906 127.111 33.906" stroke="#231F20" stroke-width="0.459986" stroke-miterlimit="10"/>
<path d="M135.301 33.7871L142.971 33.9857" stroke="#231F20" stroke-width="0.459986" stroke-miterlimit="10"/>
<path opacity="0.68" d="M136.217 43.7207C133.235 49.0855 131.326 50.8738 129.301 51.828C128.928 52.0032 128.49 52.1428 128.019 52.2531C127.961 51.5651 127.831 50.8381 127.591 50.1208C125.656 50.4616 124.108 49.9618 122.875 48.8778C127.071 49.1634 132.508 48.1703 136.217 43.7207Z" fill="#FFD2D5"/>
<path d="M129.299 61.4863C128.464 64.8247 126.318 70.6666 126.795 81.0389C127.272 91.4112 130.372 97.9685 129.179 104.287" stroke="#4B5059" stroke-width="0.324583" stroke-miterlimit="10" stroke-linecap="round"/>
<path d="M131.206 65.2421C131.206 65.8675 130.752 66.3747 130.193 66.3747C129.633 66.3747 129.18 65.8675 129.18 65.2421C129.18 64.6166 129.633 64.1094 130.193 64.1094C130.752 64.1097 131.206 64.6166 131.206 65.2421Z" fill="#4B5059"/>
<path d="M129.956 78.8925C129.956 79.5179 129.502 80.0251 128.943 80.0251C128.383 80.0251 127.93 79.5182 127.93 78.8925C127.93 78.267 128.383 77.7598 128.943 77.7598C129.502 77.7598 129.956 78.2667 129.956 78.8925Z" fill="#4B5059"/>
<path d="M130.191 71.8592C130.191 72.4847 129.737 72.9919 129.177 72.9919C128.618 72.9919 128.164 72.485 128.164 71.8592C128.164 71.2338 128.618 70.7266 129.177 70.7266C129.737 70.7266 130.191 71.2338 130.191 71.8592Z" fill="#4B5059"/>
<path d="M130.55 87.2381C130.55 87.8636 130.096 88.3708 129.537 88.3708C128.977 88.3708 128.523 87.8639 128.523 87.2381C128.523 86.6124 128.977 86.1055 129.537 86.1055C130.096 86.1055 130.55 86.6127 130.55 87.2381Z" fill="#4B5059"/>
<path d="M132.101 95.2264C132.101 95.8518 131.647 96.3591 131.087 96.3591C130.528 96.3591 130.074 95.8522 130.074 95.2264C130.074 94.601 130.528 94.0938 131.087 94.0938C131.647 94.0938 132.101 94.601 132.101 95.2264Z" fill="#4B5059"/>
<path d="M153.428 84.9906C152.081 85.1432 150.867 85.088 150.085 84.7732C147.7 83.8223 147.382 80.8007 147.382 80.8007C147.382 80.8007 145.477 88.1128 144.999 92.0853C144.522 96.0611 148.018 100.034 146.746 101.783C140.229 106.872 127.036 106.077 122.268 103.85C117.497 101.624 118.769 101.783 119.087 98.1285C119.405 94.4708 120.042 93.8347 116.861 83.1861C112.012 82.7091 110.503 83.0271 107.958 80.8007C107.543 80.4372 107.28 79.9179 107.141 79.2786C107.874 79.8887 108.896 80.5216 110.224 80.6806C113.206 81.0376 114.041 79.2493 116.903 66.6113C116.543 71.6191 119.048 78.2952 122.385 80.3236C125.724 82.3488 125.286 84.6142 123.579 86.2856C121.869 87.9538 120.717 89.265 121.194 92.3644C121.671 95.4639 120.597 98.0863 120.24 99.9946C119.882 101.903 126.202 103.094 131.089 103.928C135.977 104.766 142.059 102.14 142.893 100.712C143.727 99.2806 142.893 93.9158 141.699 91.6504C140.508 89.3851 139.554 88.0739 139.554 85.2113C139.554 82.3488 142.533 81.6348 144.204 79.0124C145.873 76.39 147.184 68.9968 147.184 68.9968C147.184 68.9968 147.304 72.0962 147.661 75.7929C147.976 79.0708 150.731 83.1861 153.428 84.9906Z" fill="#6C7755"/>
<path d="M132.874 102.201C132.874 102.826 132.42 103.334 131.861 103.334C131.301 103.334 130.848 102.827 130.848 102.201C130.848 101.576 131.301 101.068 131.861 101.068C132.42 101.068 132.874 101.576 132.874 102.201Z" fill="#4B5059"/>
<path d="M109.448 80.7402C109.448 80.7402 107.481 90.6556 107.163 93.3581C101.917 91.2917 91.5846 91.9275 88.8824 90.0198C86.1798 88.1121 85.385 83.8202 84.1134 82.3896C82.8418 80.959 81.4109 80.6409 79.6625 80.3232C77.9139 80.0051 77.7548 81.118 76.96 81.4357C76.1652 81.7538 74.5755 80.959 73.3039 81.5948C72.0323 82.2305 71.3962 83.1844 72.9859 84.774C71.873 86.8405 72.191 87.7943 74.0984 88.1124C73.6217 89.8611 73.9394 90.8941 75.8471 91.0531C76.4829 93.5966 78.3111 93.8349 79.265 93.8349C81.1727 95.4245 83.7954 95.5836 86.0208 96.0603C88.2463 96.5371 108.753 106.234 112.568 104.168C116.383 102.101 119.244 81.9125 119.244 81.9125L109.448 80.7402Z" fill="#FFD2D5"/>
<path opacity="0.5" d="M127.297 69.9938L133.662 100.464C134.095 102.539 132.755 104.591 130.68 105.025L87.7282 113.997C85.653 114.431 83.6025 113.086 83.1692 111.011L76.8041 80.5414C76.3705 78.4666 77.7116 76.4138 79.7867 75.9802L122.738 67.008C124.813 66.5747 126.864 67.919 127.297 69.9938Z" fill="#7DBEEA"/>
<path d="M127.297 69.9938L127.675 71.8003L77.1816 82.3479L76.8041 80.5414C76.3705 78.4666 77.7116 76.4138 79.7867 75.9802L122.738 67.008C124.813 66.5747 126.864 67.919 127.297 69.9938Z" fill="#1479E0"/>
<path d="M117.656 70.9815C117.817 71.752 117.323 72.5069 116.553 72.6679C115.782 72.8289 115.027 72.3349 114.866 71.5644C114.705 70.794 115.199 70.0391 115.97 69.8781C116.74 69.7171 117.495 70.2111 117.656 70.9815Z" fill="white"/>
<path d="M121.371 70.2052C121.532 70.9757 121.038 71.7306 120.268 71.8915C119.497 72.0525 118.742 71.5586 118.581 70.7881C118.42 70.0176 118.914 69.2627 119.685 69.1017C120.455 68.9407 121.21 69.4347 121.371 70.2052Z" fill="white"/>
<path d="M125.09 69.4288C125.251 70.1993 124.757 70.9542 123.986 71.1152C123.216 71.2762 122.461 70.7819 122.3 70.0117C122.139 69.2412 122.633 68.4863 123.403 68.3253C124.174 68.1644 124.929 68.6583 125.09 69.4288Z" fill="white"/>
<path d="M125.11 75.1119L103.441 79.6387L103.846 81.5735L125.515 77.0467L125.11 75.1119Z" stroke="white" stroke-width="0.324551" stroke-miterlimit="10"/>
<path d="M127.122 84.7427L105.453 89.2695L105.857 91.2043L127.526 86.6775L127.122 84.7427Z" stroke="white" stroke-width="0.324551" stroke-miterlimit="10"/>
<path d="M128.126 89.5581L106.457 94.085L106.861 96.0198L128.53 91.493L128.126 89.5581Z" stroke="white" stroke-width="0.324551" stroke-miterlimit="10"/>
<path d="M126.114 79.9283L104.445 84.4551L104.85 86.3899L126.518 81.8631L126.114 79.9283Z" stroke="white" stroke-width="0.324551" stroke-miterlimit="10"/>
<path d="M95.352 83.0244C98.1269 83.0244 100.376 85.2735 100.376 88.0517C100.376 89.7102 99.5711 91.1836 98.3314 92.0989C97.4096 90.9792 96.0108 90.2619 94.4465 90.2619C94.0213 90.2619 93.6059 90.3138 93.2099 90.4177C92.9243 88.8274 91.889 87.4967 90.4805 86.8054C91.0355 84.6309 93.0087 83.0244 95.352 83.0244Z" fill="#91CFF9"/>
<path d="M98.3278 92.0986C99.0418 92.9652 99.467 94.0784 99.467 95.2857C99.467 98.0639 97.2178 100.313 94.4429 100.313C91.9763 100.313 89.9252 98.5345 89.5 96.188C91.2785 95.7369 92.6774 94.338 93.1317 92.5627C93.8003 92.8905 94.5533 93.0755 95.3484 93.0755C96.4649 93.0755 97.4937 92.712 98.3278 92.0986Z" fill="#91CFF9"/>
<path d="M94.444 90.2617C96.0083 90.2617 97.4072 90.979 98.3289 92.0987C97.4948 92.7121 96.4659 93.0756 95.3495 93.0756C94.5543 93.0756 93.8014 92.8906 93.1328 92.5628C93.2334 92.1636 93.2886 91.7482 93.2886 91.3165C93.2886 91.0082 93.2626 90.7096 93.2075 90.4175C93.6034 90.3137 94.0188 90.2617 94.444 90.2617Z" fill="#45A2EF"/>
<path d="M93.2077 90.418C93.2629 90.7101 93.2888 91.0086 93.2888 91.317C93.2888 91.7486 93.2337 92.164 93.133 92.5632C92.4872 92.2452 91.916 91.7908 91.4648 91.2391C91.9809 90.8594 92.5716 90.577 93.2077 90.418Z" fill="#1479E0"/>
<path d="M90.48 86.8057C91.8886 87.497 92.9239 88.8276 93.2095 90.4179C92.5734 90.5769 91.9827 90.8593 91.4666 91.239C90.7494 90.3692 90.3242 89.2625 90.3242 88.0519C90.3242 87.6203 90.3794 87.2049 90.48 86.8057Z" fill="#45A2EF"/>
<path d="M93.1347 92.5634C92.6804 94.3387 91.2816 95.7375 89.503 96.1887C89.4511 95.8966 89.4219 95.5947 89.4219 95.2864C89.4219 93.6247 90.2268 92.1545 91.4665 91.2393C91.9177 91.791 92.4889 92.2454 93.1347 92.5634Z" fill="#45A2EF"/>
<path d="M91.4656 91.2381C90.2259 92.1534 89.421 93.6236 89.421 95.2853C89.421 95.5936 89.4502 95.8955 89.5021 96.1875C89.1062 96.2914 88.6907 96.3433 88.2623 96.3433C85.4874 96.3433 83.2383 94.0909 83.2383 91.316C83.2383 88.5411 85.4874 86.292 88.2623 86.292C89.0575 86.292 89.8104 86.477 90.479 86.8048C90.3784 87.204 90.3232 87.6194 90.3232 88.0511C90.3232 89.2616 90.7484 90.3683 91.4656 91.2381Z" fill="#91CFF9"/>
<path d="M93.2085 90.417C93.2637 90.7091 93.2896 91.0077 93.2896 91.316C93.2896 91.7477 93.2344 92.1631 93.1338 92.5623C92.6795 94.3376 91.2806 95.7364 89.5021 96.1875C89.1062 96.2914 88.6907 96.3433 88.2623 96.3433C85.4874 96.3433 83.2383 94.0909 83.2383 91.316C83.2383 88.5411 85.4874 86.292 88.2623 86.292C89.0575 86.292 89.8104 86.477 90.479 86.8048C91.8876 87.4961 92.9229 88.8267 93.2085 90.417Z" stroke="white" stroke-width="0.324551" stroke-miterlimit="10"/>
<path d="M98.3308 92.0987C99.0448 92.9652 99.47 94.0784 99.47 95.2858C99.47 98.0639 97.2208 100.313 94.4459 100.313C91.9793 100.313 89.9282 98.5345 89.503 96.188C89.4511 95.8959 89.4219 95.5941 89.4219 95.2858C89.4219 93.6241 90.2268 92.1539 91.4665 91.2386C91.9826 90.8589 92.5733 90.5765 93.2094 90.4175C93.6053 90.3137 94.0208 90.2617 94.4459 90.2617C96.0103 90.2617 97.4091 90.979 98.3308 92.0987Z" stroke="white" stroke-width="0.324551" stroke-miterlimit="10"/>
<path d="M90.48 86.8054C91.035 84.6309 93.0083 83.0244 95.3515 83.0244C98.1264 83.0244 100.376 85.2735 100.376 88.0517C100.376 89.7102 99.5707 91.1836 98.3309 92.0989C97.4968 92.7123 96.468 93.0758 95.3515 93.0758C94.5564 93.0758 93.8034 92.8908 93.1348 92.563C92.489 92.2449 91.9178 91.7905 91.4666 91.2388C90.7494 90.369 90.3242 89.2623 90.3242 88.0517C90.3242 87.6201 90.3794 87.2046 90.48 86.8054Z" stroke="white" stroke-width="0.324551" stroke-miterlimit="10"/>
<path d="M158.032 104.645C154.336 105.003 140.27 100.115 137.407 99.4008C134.544 98.6835 131.685 96.8952 130.014 94.5098C128.346 92.1276 128.703 91.4103 127.154 91.1734C125.603 90.9332 120.358 89.9401 119.881 88.6679C119.404 87.3989 120.754 87.6358 122.426 87.9538C124.094 88.2719 126.716 88.8269 127.034 88.5088C127.352 88.1908 124.094 86.8406 123.14 86.6816C122.186 86.5226 119.482 86.9997 118.927 86.2045C118.372 85.4094 118.69 84.6954 119.8 84.6142C120.913 84.5363 122.426 84.2183 123.14 84.2962C123.854 84.3773 125.285 84.6142 125.285 84.6142C125.285 84.6142 123.458 83.5821 122.504 83.5821C121.549 83.5821 119.005 84.3773 118.609 83.5821C118.213 82.787 118.132 81.9918 120.118 81.7549C122.108 81.5148 122.9 81.3557 122.9 81.3557C122.9 81.3557 121.39 80.8786 123.059 80.2425C124.73 79.6096 125.603 79.7687 127.112 80.0835C128.625 80.4015 129.816 81.0377 131.247 81.9139C132.678 82.787 134.742 84.0592 136.255 87.3989C137.764 90.7352 136.81 93.5166 143.327 93.9937C149.847 94.4708 152.787 93.7568 154.615 94.87C152.674 91.3973 151.775 88.4472 151.441 87.1522C151.762 87.2398 152.174 87.2658 152.726 87.2982C154.813 87.4183 158.925 86.7627 160.418 84.9745C160.424 84.9647 160.434 84.955 160.44 84.9453C161.878 89.0703 163.894 96.8401 164.111 100.115C164.351 103.691 161.729 104.288 158.032 104.645Z" fill="#FFD2D5"/>
<path d="M76.4839 81.6748C76.4839 81.6748 80.1399 82.0101 80.5375 83.0717C80.9351 84.1333 78.0735 84.4685 76.4839 84.3569C74.8942 84.2449 76.4839 81.6748 76.4839 81.6748Z" fill="#FFD2D5"/>
<path d="M76.959 84.4834C76.959 84.4834 80.6374 84.5035 81.1665 85.7352C81.6955 86.9669 78.892 87.6676 77.2968 87.6997C75.7017 87.7318 76.959 84.4834 76.959 84.4834Z" fill="#FFD2D5"/>
<path d="M77.1973 87.6631C77.1973 87.6631 80.8757 87.6832 81.4047 88.9149C81.9338 90.1465 79.1303 90.8473 77.5351 90.8794C75.94 90.9112 77.1973 87.6631 77.1973 87.6631Z" fill="#FFD2D5"/>
<path d="M78.4707 90.6035C78.4707 90.6035 82.1492 90.624 82.6782 91.8556C83.2072 93.0873 80.4037 93.788 78.8086 93.8201C77.2134 93.8519 78.4707 90.6035 78.4707 90.6035Z" fill="#FFD2D5"/>
<path opacity="0.5" d="M224.199 95.3095V127.181C224.199 129.352 222.425 131.129 220.255 131.129H175.327C173.156 131.129 171.383 129.352 171.383 127.181V95.3095C171.383 93.1389 173.157 91.3623 175.327 91.3623H220.255C222.425 91.3623 224.199 93.1392 224.199 95.3095Z" fill="#7DBEEA"/>
<path d="M224.2 95.3095V97.199H171.383V95.3095C171.383 93.1389 173.157 91.3623 175.327 91.3623H220.255C222.426 91.3623 224.2 93.1392 224.2 95.3095Z" fill="#6C93F9"/>
<path d="M214.329 94.2805C214.329 95.0863 213.675 95.7397 212.869 95.7397C212.063 95.7397 211.41 95.0863 211.41 94.2805C211.41 93.4746 212.063 92.8213 212.869 92.8213C213.675 92.8213 214.329 93.4746 214.329 94.2805Z" fill="white"/>
<path d="M218.215 94.2805C218.215 95.0863 217.562 95.7397 216.756 95.7397C215.95 95.7397 215.297 95.0863 215.297 94.2805C215.297 93.4746 215.95 92.8213 216.756 92.8213C217.562 92.8213 218.215 93.4746 218.215 94.2805Z" fill="white"/>
<path d="M222.102 94.2805C222.102 95.0863 221.449 95.7397 220.643 95.7397C219.837 95.7397 219.184 95.0863 219.184 94.2805C219.184 93.4746 219.837 92.8213 220.643 92.8213C221.449 92.8213 222.102 93.4746 222.102 94.2805Z" fill="white"/>
<path d="M194.35 120.805C193.69 124.66 190.066 127.259 186.254 126.607C182.444 125.956 179.89 122.3 180.549 118.444C181.066 115.422 183.407 113.174 186.228 112.658L187.525 105.073C187.1 104.748 186.875 104.383 186.934 104.035C187.066 103.264 188.557 102.877 190.262 103.168C191.97 103.46 193.248 104.322 193.116 105.093C193.057 105.44 192.72 105.707 192.214 105.874L190.916 113.46C193.409 114.885 194.866 117.783 194.35 120.805Z" stroke="white" stroke-width="0.649102" stroke-miterlimit="10"/>
<path d="M181.363 117.815C182.962 117.472 184.608 117.446 186.324 118.817C188.04 120.188 191.239 120.992 193.692 119.256" stroke="white" stroke-width="0.649102" stroke-miterlimit="10"/>
<path d="M214.586 103.1H199.004V105.528H214.586V103.1Z" stroke="white" stroke-width="0.649102" stroke-miterlimit="10"/>
<path d="M209.627 108.463H195.562V110.689H209.627V108.463Z" stroke="white" stroke-width="0.649102" stroke-miterlimit="10"/>
<path d="M221.264 112.915H206.086V115.343H221.264V112.915Z" stroke="white" stroke-width="0.649102" stroke-miterlimit="10"/>
<path d="M202.749 119.896H199.207V123.235H202.749V119.896Z" stroke="white" stroke-width="0.649102" stroke-miterlimit="10"/>
<path d="M208.819 122.527H205.277V126.069H208.819V122.527Z" stroke="white" stroke-width="0.649102" stroke-miterlimit="10"/>
<path d="M214.182 119.997H210.742V123.336H214.182V119.997Z" stroke="white" stroke-width="0.649102" stroke-miterlimit="10"/>
<path d="M182.713 101.076H175.023V103.404H182.713V101.076Z" stroke="white" stroke-width="0.649102" stroke-miterlimit="10"/>
<path d="M178.16 107.147H174.012V110.689H178.16V107.147Z" stroke="white" stroke-width="0.649102" stroke-miterlimit="10"/>
<path opacity="0.5" d="M219.601 31.7872V65.7755C219.601 68.0902 217.71 69.9846 215.395 69.9846H167.484C165.169 69.9846 163.277 68.0899 163.277 65.7755V31.7872C163.277 29.4725 165.169 27.5781 167.484 27.5781H215.395C217.709 27.5778 219.601 29.4725 219.601 31.7872Z" fill="#7DBEEA"/>
<path d="M219.601 31.7872V33.8024H163.277V31.7872C163.277 29.4725 165.169 27.5781 167.484 27.5781H215.395C217.709 27.5778 219.601 29.4725 219.601 31.7872Z" fill="#6C93F9"/>
<path d="M209.073 30.69C209.073 31.5494 208.376 32.2459 207.517 32.2459C206.658 32.2459 205.961 31.5494 205.961 30.69C205.961 29.8306 206.658 29.1338 207.517 29.1338C208.376 29.1341 209.073 29.8309 209.073 30.69Z" fill="white"/>
<path d="M211.665 32.2456C212.525 32.2456 213.221 31.549 213.221 30.6897C213.221 29.8304 212.525 29.1338 211.665 29.1338C210.806 29.1338 210.109 29.8304 210.109 30.6897C210.109 31.549 210.806 32.2456 211.665 32.2456Z" fill="white"/>
<path d="M217.366 30.69C217.366 31.5494 216.669 32.2459 215.81 32.2459C214.95 32.2459 214.254 31.5494 214.254 30.69C214.254 29.8306 214.951 29.1338 215.81 29.1338C216.669 29.1338 217.366 29.8309 217.366 30.69Z" fill="white"/>
<path d="M166.117 50.5712C179.972 46.9018 181.079 62.6918 194.519 59.2879C207.959 55.8844 201.793 41.0544 213.421 38.1094" stroke="white" stroke-width="0.649102" stroke-miterlimit="10"/>
<path d="M169.789 65.0691C183.721 61.7015 177.178 47.2886 190.618 43.8847C204.059 40.4808 205.694 56.4581 217.323 53.5134" stroke="white" stroke-width="0.649102" stroke-miterlimit="10"/>
<path d="M167.465 50.3906L171.085 64.6871" stroke="white" stroke-width="0.649102" stroke-miterlimit="10"/>
<path d="M170.688 50.0039L174.078 63.3939" stroke="white" stroke-width="0.649102" stroke-miterlimit="10"/>
<path d="M174.156 50.5898L176.821 61.1134" stroke="white" stroke-width="0.649102" stroke-miterlimit="10"/>
<path d="M178.027 52.752L179.2 57.3833" stroke="white" stroke-width="0.649102" stroke-miterlimit="10"/>
<path d="M191.676 43.6162L195.602 59.1207" stroke="white" stroke-width="0.649102" stroke-miterlimit="10"/>
<path d="M194.949 43.4297L198.544 57.6252" stroke="white" stroke-width="0.649102" stroke-miterlimit="10"/>
<path d="M198.453 44.1504L201.255 55.2137" stroke="white" stroke-width="0.649102" stroke-miterlimit="10"/>
<path d="M202.391 46.5811L203.563 51.2124" stroke="white" stroke-width="0.649102" stroke-miterlimit="10"/>
<path d="M212.945 38.3379L216.795 53.5402" stroke="white" stroke-width="0.649102" stroke-miterlimit="10"/>
<path d="M210.102 39.3789L213.743 53.7581" stroke="white" stroke-width="0.649102" stroke-miterlimit="10"/>
<path d="M207.672 42.0576L210.432 52.9557" stroke="white" stroke-width="0.649102" stroke-miterlimit="10"/>
<path d="M205.578 46.0635L206.691 50.4573" stroke="white" stroke-width="0.649102" stroke-miterlimit="10"/>
<path d="M189.098 44.4297L192.947 59.632" stroke="white" stroke-width="0.649102" stroke-miterlimit="10"/>
<path d="M186.305 45.6729L189.895 59.8505" stroke="white" stroke-width="0.649102" stroke-miterlimit="10"/>
<path d="M183.824 48.1504L186.584 59.0482" stroke="white" stroke-width="0.649102" stroke-miterlimit="10"/>
<path d="M181.625 51.7324L182.845 56.5494" stroke="white" stroke-width="0.649102" stroke-miterlimit="10"/>
<path opacity="0.5" d="M69.2248 71.06V108.614C69.2248 111.171 67.1347 113.265 64.5773 113.265H11.6398C9.0823 113.265 6.99219 111.171 6.99219 108.614V71.06C6.99219 68.5025 9.0823 66.4092 11.6398 66.4092H64.5773C67.1347 66.4092 69.2248 68.5025 69.2248 71.06Z" fill="#7DBEEA"/>
<path d="M69.2248 70.5825V72.8089H6.99219V70.5825C6.99219 68.025 9.0823 65.9316 11.6398 65.9316H64.5773C67.1347 65.9316 69.2248 68.025 69.2248 70.5825Z" fill="#6C93F9"/>
<path d="M55.8757 71.0893C56.8254 71.0893 57.5952 70.3195 57.5952 69.3699C57.5952 68.4202 56.8254 67.6504 55.8757 67.6504C54.9261 67.6504 54.1562 68.4202 54.1562 69.3699C54.1562 70.3195 54.9261 71.0893 55.8757 71.0893Z" fill="white"/>
<path d="M60.4538 71.0893C61.4035 71.0893 62.1733 70.3195 62.1733 69.3699C62.1733 68.4202 61.4035 67.6504 60.4538 67.6504C59.5042 67.6504 58.7344 68.4202 58.7344 69.3699C58.7344 70.3195 59.5042 71.0893 60.4538 71.0893Z" fill="white"/>
<path d="M65.0356 71.0887C65.985 71.0887 66.7547 70.319 66.7547 69.3695C66.7547 68.4201 65.985 67.6504 65.0356 67.6504C64.0861 67.6504 63.3164 68.4201 63.3164 69.3695C63.3164 70.319 64.0861 71.0887 65.0356 71.0887Z" fill="white"/>
<path d="M32.1605 84.8887H24.2385L20.2773 91.749L24.2385 98.6097H32.1605L36.1216 91.749L32.1605 84.8887Z" stroke="white" stroke-width="0.649102" stroke-miterlimit="10"/>
<path d="M44.0433 91.749H36.1213L32.1602 98.6097L36.1213 105.47H44.0433L48.0041 98.6097L44.0433 91.749Z" stroke="white" stroke-width="0.649102" stroke-miterlimit="10"/>
<path d="M44.043 91.7484L48.897 84.7686" stroke="white" stroke-width="0.649102" stroke-miterlimit="10"/>
<path d="M48.0039 98.6094H56.5273" stroke="white" stroke-width="0.649102" stroke-miterlimit="10"/>
<path d="M24.2383 84.888L19.4492 77.377" stroke="white" stroke-width="0.649102" stroke-miterlimit="10"/>
<path d="M24.2375 98.6094L17.6602 106.467" stroke="white" stroke-width="0.649102" stroke-miterlimit="10"/>
</svg>
