<svg width="72" height="72" viewBox="0 0 72 72" fill="none" xmlns="http://www.w3.org/2000/svg">
<rect width="72" height="72" rx="10" fill="white"/>
<g clip-path="url(#clip0_1498_4549)">
<g clip-path="url(#clip1_1498_4549)">
<g clip-path="url(#clip2_1498_4549)">
<path d="M2.5 11.1406C2.5 8.37921 4.73858 6.14062 7.5 6.14062H24.4297C35.4754 6.14062 44.4297 15.0949 44.4297 26.1407V52.1407C44.4297 54.9021 42.1911 57.1407 39.4297 57.1407H22.5C11.4543 57.1407 2.5 48.1864 2.5 37.1407V11.1406Z" fill="#F4F4F4"/>
<path d="M68.2505 32.9569L68.2552 32.9535C68.4876 32.7793 68.6794 32.5336 68.6794 32.2149C68.6794 31.9085 68.4992 31.5999 68.2459 31.4699L47.3412 17.4237L47.3369 17.421C47.0308 17.2373 46.6071 17.2373 46.301 17.421L46.2969 17.4236L20.5078 34.6529C20.4494 34.6826 20.4001 34.715 20.3572 34.7579C20.3129 34.8022 20.2797 34.8534 20.2493 34.9143C20.2423 34.9281 20.2387 34.9435 20.2387 34.959V34.9601V34.9611V34.9622V34.9632V34.9643V34.9653V34.9664V34.9674V34.9685V34.9695V34.9706V34.9716V34.9728V34.9739V34.9751V34.9762V34.9773V34.9784V34.9795V34.9807V34.9818V34.9829V34.984C20.1881 35.0652 20.1596 35.1387 20.1446 35.2138C20.1289 35.2922 20.1289 35.3694 20.1289 35.4479V35.4529V50.5453C20.1289 50.8518 20.3092 51.1604 20.5626 51.2904L41.4674 65.2269C41.6371 65.34 41.7673 65.4084 41.962 65.4084C42.143 65.4084 42.3319 65.3494 42.4643 65.2217L68.3056 47.9942L68.3101 47.991C68.5424 47.8167 68.7343 47.5711 68.7343 47.2524C68.7343 47.2469 68.7338 47.2414 68.7329 47.236C68.6756 46.8919 68.5016 46.5838 68.246 46.4526L64.234 43.7418V35.6164L68.2505 32.9569ZM26.3836 37.8991C26.3548 37.8724 26.3234 37.8532 26.3081 37.844C26.3022 37.8198 26.2874 37.7984 26.2662 37.7843L22.66 35.3979L46.8463 19.3282L66.093 32.1593L63.047 34.155C62.874 34.2153 62.7052 34.3279 62.5887 34.4421L41.907 48.2299L26.3836 37.8991ZM26.6952 40.3596L41.3577 50.1346L41.3617 50.1371C41.6678 50.3208 42.0915 50.3208 42.3976 50.1371L42.4016 50.1345L62.3876 36.7924V43.302L42.016 56.7374L26.6952 46.9233V40.3596ZM25.3278 48.2105L25.3338 48.2147L41.5702 58.6367C41.6424 58.705 41.729 58.737 41.8137 58.7524C41.8981 58.7677 41.9881 58.7677 42.0673 58.7677H42.0717C42.2563 58.7677 42.4364 58.707 42.5555 58.6474L42.5657 58.6415L63.0356 45.1774L66.095 47.2516L41.9072 63.3223L21.9205 49.9978V37.1747L24.9036 39.1291V47.4171C24.9036 47.7291 25.0885 48.031 25.3278 48.2105Z" fill="#4C4C4C" stroke="#4C4C4C" stroke-width="0.2" stroke-linecap="round" stroke-linejoin="round"/>
<path d="M43.2187 26.8076L43.2203 26.8086L52.9892 33.5042L52.9902 33.5049C53.1644 33.621 53.3483 33.6863 53.4848 33.6863C53.6356 33.6863 53.7767 33.656 53.9042 33.5843C54.0308 33.5131 54.1379 33.4045 54.227 33.257C54.534 32.8235 54.405 32.2704 53.9819 31.9683L53.9806 31.9674L44.2679 25.2727C44.2677 25.2726 44.2682 25.2729 44.2679 25.2727C43.8341 24.9634 43.2787 25.0917 42.9759 25.5155C42.6659 25.9495 42.7946 26.5047 43.2187 26.8076Z" fill="#4C4C4C"/>
<path d="M44.2679 25.2727L53.9806 31.9674L53.9819 31.9683C54.405 32.2704 54.534 32.8235 54.227 33.257C54.1379 33.4045 54.0308 33.5131 53.9042 33.5843C53.7767 33.656 53.6356 33.6863 53.4848 33.6863C53.3483 33.6863 53.1644 33.621 52.9902 33.5049L52.9892 33.5042L43.2203 26.8086L43.2187 26.8076C42.7946 26.5047 42.6659 25.9495 42.9759 25.5155C43.2787 25.0917 43.8341 24.9634 44.2679 25.2727ZM44.2679 25.2727C44.2677 25.2726 44.2682 25.2729 44.2679 25.2727Z" stroke="#4C4C4C" stroke-width="0.2" stroke-linecap="round" stroke-linejoin="round"/>
</g>
</g>
</g>
<defs>
<clipPath id="clip0_1498_4549">
<rect width="67" height="61" fill="white" transform="translate(2.5 5.5)"/>
</clipPath>
<clipPath id="clip1_1498_4549">
<rect width="67" height="61" fill="white" transform="translate(2.5 5.5)"/>
</clipPath>
<clipPath id="clip2_1498_4549">
<rect width="67" height="61" fill="white" transform="translate(2.5 5.5)"/>
</clipPath>
</defs>
</svg>
