<svg width="72" height="72" viewBox="0 0 72 72" fill="none" xmlns="http://www.w3.org/2000/svg">
<rect width="72" height="72" rx="10" fill="white"/>
<g clip-path="url(#clip0_1498_4558)">
<g clip-path="url(#clip1_1498_4558)">
<g clip-path="url(#clip2_1498_4558)">
<path d="M4 16C4 13.2386 6.23858 11 9 11H21.1145C32.1602 11 41.1145 19.9543 41.1145 31V51.6106C41.1145 54.372 38.8759 56.6106 36.1145 56.6106H24C12.9543 56.6106 4 47.6563 4 36.6106V16Z" fill="#EBF4FF"/>
<path d="M43.3091 35.5925C48.0264 35.5925 51.8635 31.7555 51.8635 27.0386C51.8635 22.3228 48.0259 18.4863 43.3091 18.4863C38.5938 18.4863 34.7578 22.3228 34.7578 27.0386C34.7578 31.7554 38.5938 35.5925 43.3091 35.5925ZM43.3091 20.1917C47.0863 20.1917 50.1586 23.2635 50.1586 27.0391C50.1586 30.8158 47.0858 33.8881 43.3091 33.8881C39.534 33.8881 36.4626 30.8159 36.4626 27.0391C36.4626 23.2635 39.534 20.1917 43.3091 20.1917Z" fill="#0044EB" stroke="#0044EB" stroke-width="0.2"/>
<path d="M59.1588 31.5964L61.2105 33.3326C62.2606 34.221 62.5334 35.6831 61.9762 36.873L63.7712 38.7691L59.1588 31.5964ZM59.1588 31.5964C58.5502 31.0822 57.7781 30.8356 56.9852 30.901L59.1588 31.5964ZM59.1588 31.5964L56.9852 30.901L59.1588 31.5964ZM56.9852 30.901C56.1908 30.9669 55.469 31.3386 54.9543 31.9473C53.8928 33.2024 54.05 35.0884 55.3051 36.1509L57.3562 37.888M56.9852 30.901L57.3562 37.888L56.9852 30.901ZM57.3562 37.888C57.9157 38.3609 58.6001 38.5919 59.2814 38.5919C59.8253 38.5919 60.3652 38.4407 60.8388 38.1512L62.3 39.695V50.807H58.2208C57.9727 42.9287 51.4908 36.5946 43.553 36.5946C35.6161 36.5946 29.1352 42.9287 28.8871 50.807H27.1103C26.6391 50.807 26.2578 51.189 26.2578 51.6595V59.8997C26.2578 60.3707 26.6392 60.7521 27.1103 60.7521H66.1541C66.6246 60.7521 67.0065 60.3708 67.0065 59.8997V51.6595C67.0065 51.188 66.6248 50.806 66.1541 50.806H64.0048M57.3562 37.888L64.0048 50.806L57.3562 37.888ZM56.2562 33.0471C55.8013 33.5848 55.8687 34.3931 56.4065 34.8485L58.4576 36.5856L56.2562 33.0471ZM56.2562 33.0471C56.4768 32.786 56.7854 32.6271 57.126 32.5991C57.1621 32.5963 57.1977 32.595 57.2337 32.595C57.5351 32.595 57.8248 32.7004 58.0575 32.8974L60.1091 34.6334C60.109 34.6334 60.1091 34.6335 60.1091 34.6334C60.6463 35.0883 60.7139 35.8971 60.2584 36.4353M56.2562 33.0471L60.2584 36.4353L56.2562 33.0471ZM60.2584 36.4353C59.8045 36.9724 58.9949 37.04 58.4576 36.5856L60.2584 36.4353ZM64.0048 50.806V39.3552C64.0048 39.1371 63.9218 38.9278 63.7712 38.7691L64.0048 50.806ZM43.553 38.2979C50.5505 38.2979 56.2683 43.8674 56.5155 50.8055H30.5924C30.8392 43.8678 36.5564 38.2979 43.553 38.2979ZM65.3017 59.0462H27.9627V52.5109H65.3017V59.0462Z" fill="#0044EB"/>
<path d="M59.1588 31.5964L61.2105 33.3326C62.2606 34.221 62.5334 35.6831 61.9762 36.873L63.7712 38.7691M59.1588 31.5964L63.7712 38.7691M59.1588 31.5964C58.5502 31.0822 57.7781 30.8356 56.9852 30.901M59.1588 31.5964L56.9852 30.901M63.7712 38.7691C63.9218 38.9278 64.0048 39.1371 64.0048 39.3552V50.806M63.7712 38.7691L64.0048 50.806M56.9852 30.901C56.1908 30.9669 55.469 31.3386 54.9543 31.9473C53.8928 33.2024 54.05 35.0884 55.3051 36.1509L57.3562 37.888M56.9852 30.901L57.3562 37.888M57.3562 37.888C57.9157 38.3609 58.6001 38.5919 59.2814 38.5919C59.8253 38.5919 60.3652 38.4407 60.8388 38.1512L62.3 39.695V50.807H58.2208C57.9727 42.9287 51.4908 36.5946 43.553 36.5946C35.6161 36.5946 29.1352 42.9287 28.8871 50.807H27.1103C26.6391 50.807 26.2578 51.189 26.2578 51.6595V59.8997C26.2578 60.3707 26.6392 60.7521 27.1103 60.7521H66.1541C66.6246 60.7521 67.0065 60.3708 67.0065 59.8997V51.6595C67.0065 51.188 66.6248 50.806 66.1541 50.806H64.0048M57.3562 37.888L64.0048 50.806M56.2562 33.0471C55.8013 33.5848 55.8687 34.3931 56.4065 34.8485L58.4576 36.5856M56.2562 33.0471L58.4576 36.5856M56.2562 33.0471C56.4768 32.786 56.7854 32.6271 57.126 32.5991M56.2562 33.0471L60.2584 36.4353M58.4576 36.5856C58.9949 37.04 59.8045 36.9724 60.2584 36.4353M58.4576 36.5856L60.2584 36.4353M57.126 32.5991L57.1179 32.4995M57.126 32.5991C57.1621 32.5963 57.1977 32.595 57.2337 32.595C57.5351 32.595 57.8248 32.7004 58.0575 32.8974L60.1091 34.6334M60.1091 34.6334C60.1091 34.6335 60.109 34.6334 60.1091 34.6334ZM60.1091 34.6334C60.6463 35.0883 60.7139 35.8971 60.2584 36.4353M43.553 38.2979C50.5505 38.2979 56.2683 43.8674 56.5155 50.8055H30.5924C30.8392 43.8678 36.5564 38.2979 43.553 38.2979ZM65.3017 59.0462H27.9627V52.5109H65.3017V59.0462Z" stroke="#0044EB" stroke-width="0.2"/>
</g>
</g>
</g>
<defs>
<clipPath id="clip0_1498_4558">
<rect width="64" height="50" fill="white" transform="translate(4 11)"/>
</clipPath>
<clipPath id="clip1_1498_4558">
<rect width="64" height="50" fill="white" transform="translate(4 11)"/>
</clipPath>
<clipPath id="clip2_1498_4558">
<rect width="64" height="50" fill="white" transform="translate(4 11)"/>
</clipPath>
</defs>
</svg>
