<svg width="72" height="72" viewBox="0 0 72 72" fill="none" xmlns="http://www.w3.org/2000/svg">
<rect width="72" height="72" rx="10" fill="white"/>
<g clip-path="url(#clip0_1498_4567)">
<g clip-path="url(#clip1_1498_4567)">
<g clip-path="url(#clip2_1498_4567)">
<path d="M5.5 12.6914C5.5 9.92998 7.73858 7.69141 10.5 7.69141H27.4297C38.4754 7.69141 47.4297 16.6457 47.4297 27.6914V53.6914C47.4297 56.4528 45.1911 58.6914 42.4297 58.6914H25.5C14.4543 58.6914 5.5 49.7371 5.5 38.6914V12.6914Z" fill="#F4F4F4"/>
<path d="M56.4737 28.7778V28.7861C59.0077 28.7476 61.4576 29.7031 63.2971 31.4503C65.1614 33.2209 66.2459 35.6597 66.3121 38.23C66.3783 40.8003 65.4207 43.2916 63.65 45.1559C61.8804 47.0191 59.4435 48.1035 56.8749 48.1708C56.8101 48.1782 56.7447 48.1783 56.68 48.171H53.4877C53.2543 48.171 53.0305 48.0782 52.8655 47.9132C52.7005 47.7482 52.6077 47.5244 52.6077 47.291C52.6077 47.0576 52.7005 46.8337 52.8655 46.6687C53.0305 46.5037 53.2543 46.411 53.4877 46.411H56.5401H56.665C57.7197 46.4114 58.764 46.2016 59.7367 45.7939C60.7095 45.3862 61.5913 44.7888 62.3305 44.0366C63.0698 43.2843 63.6518 42.3922 64.0425 41.4125C64.4332 40.4328 64.6247 39.3851 64.606 38.3305C64.5872 37.276 64.3585 36.2357 63.9332 35.2705C63.5079 34.3053 62.8946 33.4345 62.129 32.709C61.3634 31.9836 60.4609 31.4179 59.4743 31.0451C58.4876 30.6723 57.4366 30.4998 56.3825 30.5377L56.379 30.5378C54.8925 30.5386 53.4336 30.9397 52.1556 31.6989C52.022 31.7788 51.8696 31.8218 51.7139 31.8235C51.5582 31.8253 51.4048 31.7856 51.2694 31.7087C51.1339 31.6317 51.0214 31.5202 50.9431 31.3855C50.8649 31.2508 50.8239 31.0977 50.8241 30.942M56.4737 28.7778L28.1605 34.0847C27.8413 33.0427 27.6781 31.9592 27.6761 30.8694C27.6761 24.6453 32.8654 19.5814 39.2501 19.5814C45.635 19.5814 50.8241 24.6506 50.8241 30.8486V30.8497V30.8507V30.8518V30.8529V30.854V30.8552V30.8564V30.8576V30.8588V30.8598V30.8609V30.862V30.8631V30.8642V30.8653V30.8665V30.8675V30.8687V30.8699V30.871V30.8723V30.8736V30.8747V30.8758V30.8769V30.8781V30.8792V30.8804V30.8816V30.8827V30.8839V30.8851V30.8863V30.8876V30.8888V30.89V30.8912V30.8925V30.8937V30.895V30.896V30.8972V30.8984V30.8997V30.9009V30.9022V30.9032V30.9044V30.9056V30.9069V30.9081V30.9093V30.9105V30.9117V30.9129V30.9139V30.9151V30.9162V30.9172V30.9183V30.9194V30.9206V30.9217V30.9228V30.9239V30.925V30.9262V30.9273V30.9285V30.9297V30.9307V30.9318V30.9329V30.934V30.9352V30.9364V30.9375V30.9386V30.9396V30.9408V30.942M56.4737 28.7778H56.3737H56.4737ZM56.4737 28.7778H56.3737H56.4737ZM50.8241 30.942L50.9241 30.9422L50.8241 30.942ZM50.8241 30.942L50.9241 30.9422L50.8241 30.942ZM50.9241 30.9422C50.9239 31.0802 50.9603 31.2159 51.0296 31.3353L39.2501 19.4814C45.6877 19.4814 50.9241 24.593 50.9241 30.8486V30.9422ZM56.3737 28.7778C55.0493 28.7779 53.7384 29.0403 52.5168 29.5496C52.1441 26.3276 50.6017 23.3526 48.1798 21.1906C45.7245 18.9987 42.541 17.7994 39.2497 17.8266C31.9168 17.8268 25.9161 23.6777 25.9161 30.8746C25.9161 31.6344 25.9842 32.3927 26.1196 33.1402C25.1176 32.9544 24.0879 32.9723 23.0921 33.1934C22.0481 33.4251 21.0648 33.875 20.2067 34.5134C19.3487 35.1519 18.6353 35.9645 18.1134 36.898C17.5915 37.8315 17.2728 38.8648 17.1782 39.9301C17.0836 40.9954 17.2153 42.0687 17.5647 43.0795C17.914 44.0903 18.473 45.0159 19.2052 45.7955C19.9373 46.5751 20.826 47.1912 21.8129 47.6032C22.7995 48.0151 23.8619 48.2139 24.9306 48.1866H25.1893C25.4227 48.1866 25.6466 48.0938 25.8116 47.9288C25.9766 47.7638 26.0693 47.54 26.0693 47.3066C26.0693 47.0732 25.9766 46.8493 25.8116 46.6843C25.6466 46.5193 25.4227 46.4266 25.1893 46.4266H24.9293M56.3737 28.7778L24.9293 46.4266L56.3737 28.7778ZM24.9293 46.4266H24.9264H24.9293ZM24.9293 46.4266H24.9264H24.9293ZM24.9264 46.4266C24.1482 46.4497 23.3734 46.3163 22.6477 46.0345C21.922 45.7526 21.2603 45.328 20.7017 44.7857C20.1431 44.2435 19.6991 43.5946 19.3958 42.8776C19.0926 42.1606 18.9363 41.3901 18.9363 40.6116C18.9363 39.8331 19.0926 39.0625 19.3958 38.3455C19.6991 37.6285 20.1431 36.9796 20.7017 36.4374C21.2603 35.8951 21.922 35.4705 22.6477 35.1886C23.3734 34.9068 24.1482 34.7734 24.9264 34.7966H24.9291M24.9264 46.4266L24.9291 34.7966L24.9264 46.4266ZM24.9291 34.7966C25.6414 34.7981 26.3479 34.9245 27.0165 35.17L24.9291 34.7966ZM24.9291 34.7966L27.0165 35.17L24.9291 34.7966ZM27.0165 35.17C27.1704 35.2265 27.3371 35.2388 27.4976 35.2057L27.0165 35.17ZM27.0165 35.17L27.4976 35.2057L27.0165 35.17ZM27.4976 35.2057C27.6582 35.1725 27.8063 35.0951 27.9252 34.9823L27.4976 35.2057ZM27.4976 35.2057L27.9252 34.9823L27.4976 35.2057ZM27.9252 34.9823C28.0441 34.8694 28.1292 34.7256 28.1708 34.567L27.9252 34.9823ZM27.9252 34.9823L28.1708 34.567L27.9252 34.9823ZM28.1708 34.567C28.2123 34.4085 28.2087 34.2413 28.1605 34.0847L28.1708 34.567Z" fill="#4C4C4C"/>
<path d="M56.4737 28.7778V28.7861C59.0077 28.7476 61.4576 29.7031 63.2971 31.4503C65.1614 33.2209 66.2459 35.6597 66.3121 38.23C66.3783 40.8003 65.4207 43.2916 63.65 45.1559C61.8804 47.0191 59.4435 48.1035 56.8749 48.1708C56.8101 48.1782 56.7447 48.1783 56.68 48.171H53.4877C53.2543 48.171 53.0305 48.0782 52.8655 47.9132C52.7005 47.7482 52.6077 47.5244 52.6077 47.291C52.6077 47.0576 52.7005 46.8337 52.8655 46.6687C53.0305 46.5037 53.2543 46.411 53.4877 46.411H56.5401H56.665C57.7197 46.4114 58.764 46.2016 59.7367 45.7939C60.7095 45.3862 61.5913 44.7888 62.3305 44.0366C63.0698 43.2843 63.6518 42.3922 64.0425 41.4125C64.4332 40.4328 64.6247 39.3851 64.606 38.3305C64.5872 37.276 64.3585 36.2357 63.9332 35.2705C63.5079 34.3053 62.8946 33.4345 62.129 32.709C61.3634 31.9836 60.4609 31.4179 59.4743 31.0451C58.4876 30.6723 57.4366 30.4998 56.3825 30.5377L56.379 30.5378C54.8925 30.5386 53.4336 30.9397 52.1556 31.6989C52.022 31.7788 51.8696 31.8218 51.7139 31.8235C51.5582 31.8253 51.4048 31.7856 51.2694 31.7087C51.1339 31.6317 51.0214 31.5202 50.9431 31.3855C50.8649 31.2508 50.8239 31.0977 50.8241 30.942M56.4737 28.7778L28.1605 34.0847M56.4737 28.7778H56.3737M50.8241 30.942V30.9408V30.9396V30.9386V30.9375V30.9364V30.9352V30.934V30.9329V30.9318V30.9307V30.9297V30.9285V30.9273V30.9262V30.925V30.9239V30.9228V30.9217V30.9206V30.9194V30.9183V30.9172V30.9162V30.9151V30.9139V30.9129V30.9117V30.9105V30.9093V30.9081V30.9069V30.9056V30.9044V30.9032V30.9022V30.9009V30.8997V30.8984V30.8972V30.896V30.895V30.8937V30.8925V30.8912V30.89V30.8888V30.8876V30.8863V30.8851V30.8839V30.8827V30.8816V30.8804V30.8792V30.8781V30.8769V30.8758V30.8747V30.8736V30.8723V30.871V30.8699V30.8687V30.8675V30.8665V30.8653V30.8642V30.8631V30.862V30.8609V30.8598V30.8588V30.8576V30.8564V30.8552V30.854V30.8529V30.8518V30.8507V30.8497V30.8486C50.8241 24.6506 45.635 19.5814 39.2501 19.5814C32.8654 19.5814 27.6761 24.6453 27.6761 30.8694C27.6781 31.9592 27.8413 33.0427 28.1605 34.0847M50.8241 30.942L50.9241 30.9422M28.1605 34.0847C28.2087 34.2413 28.2123 34.4085 28.1708 34.567M28.1605 34.0847L28.1708 34.567M56.3737 28.7778C55.0493 28.7779 53.7384 29.0403 52.5168 29.5496C52.1441 26.3276 50.6017 23.3526 48.1798 21.1906C45.7245 18.9987 42.541 17.7994 39.2497 17.8266C31.9168 17.8268 25.9161 23.6777 25.9161 30.8746C25.9161 31.6344 25.9842 32.3927 26.1196 33.1402C25.1176 32.9544 24.0879 32.9723 23.0921 33.1934C22.0481 33.4251 21.0648 33.875 20.2067 34.5134C19.3487 35.1519 18.6353 35.9645 18.1134 36.898C17.5915 37.8315 17.2728 38.8648 17.1782 39.9301C17.0836 40.9954 17.2153 42.0687 17.5647 43.0795C17.914 44.0903 18.473 45.0159 19.2052 45.7955C19.9373 46.5751 20.826 47.1912 21.8129 47.6032C22.7995 48.0151 23.8619 48.2139 24.9306 48.1866H25.1893C25.4227 48.1866 25.6466 48.0938 25.8116 47.9288C25.9766 47.7638 26.0693 47.54 26.0693 47.3066C26.0693 47.0732 25.9766 46.8493 25.8116 46.6843C25.6466 46.5193 25.4227 46.4266 25.1893 46.4266H24.9293M56.3737 28.7778L24.9293 46.4266M50.9241 30.9422C50.9239 31.0802 50.9603 31.2159 51.0296 31.3353L39.2501 19.4814C45.6877 19.4814 50.9241 24.593 50.9241 30.8486V30.9422ZM24.9293 46.4266H24.9264M24.9264 46.4266C24.1482 46.4497 23.3734 46.3163 22.6477 46.0345C21.922 45.7526 21.2603 45.328 20.7017 44.7857C20.1431 44.2435 19.6991 43.5946 19.3958 42.8776C19.0926 42.1606 18.9363 41.3901 18.9363 40.6116C18.9363 39.8331 19.0926 39.0625 19.3958 38.3455C19.6991 37.6285 20.1431 36.9796 20.7017 36.4374C21.2603 35.8951 21.922 35.4705 22.6477 35.1886C23.3734 34.9068 24.1482 34.7734 24.9264 34.7966H24.9291M24.9264 46.4266L24.9291 34.7966M24.9291 34.7966C25.6414 34.7981 26.3479 34.9245 27.0165 35.17M24.9291 34.7966L27.0165 35.17M27.0165 35.17C27.1704 35.2265 27.3371 35.2388 27.4976 35.2057M27.0165 35.17L27.4976 35.2057M27.4976 35.2057C27.6582 35.1725 27.8063 35.0951 27.9252 34.9823M27.4976 35.2057L27.9252 34.9823M27.9252 34.9823C28.0441 34.8694 28.1292 34.7256 28.1708 34.567M27.9252 34.9823L28.1708 34.567" stroke="#4C4C4C" stroke-width="0.2"/>
<path d="M54.3812 56.5635L54.3786 56.5659L49.6406 61.304V38.4679C49.6406 38.2345 49.5478 38.0106 49.3828 37.8456C49.2178 37.6806 48.9939 37.5879 48.7606 37.5879C48.5272 37.5879 48.3033 37.6806 48.1383 37.8456C47.9733 38.0106 47.8806 38.2345 47.8806 38.4679V61.304L43.1437 56.5672C43.0634 56.4813 42.9667 56.4124 42.8593 56.3646C42.7513 56.3165 42.6348 56.2906 42.5166 56.2885C42.3985 56.2864 42.2811 56.3082 42.1715 56.3524C42.062 56.3967 41.9624 56.4626 41.8788 56.5461C41.7953 56.6297 41.7294 56.7292 41.6851 56.8388C41.6409 56.9484 41.6192 57.0658 41.6212 57.1839C41.6233 57.3021 41.6492 57.4186 41.6973 57.5266C41.7451 57.6339 41.814 57.7307 41.8999 57.811L48.1386 64.0498C48.3036 64.2146 48.5274 64.3072 48.7606 64.3072C48.9938 64.3072 49.2174 64.2146 49.3824 64.0498L55.6225 57.8098L55.6249 57.8072C55.7804 57.6404 55.865 57.4198 55.861 57.1918C55.8569 56.9638 55.7646 56.7463 55.6034 56.5851C55.4421 56.4238 55.2246 56.3315 54.9966 56.3274C54.7686 56.3234 54.548 56.4081 54.3812 56.5635Z" fill="#4C4C4C" stroke="#4C4C4C" stroke-width="0.2"/>
<path d="M42.1056 44.0879L42.1031 44.0853L35.8631 37.8453C35.6981 37.6805 35.4744 37.5879 35.2412 37.5879C35.008 37.5879 34.7843 37.6805 34.6193 37.8453L28.3793 44.0853L28.3768 44.0879C28.2214 44.2547 28.1368 44.4753 28.1408 44.7033C28.1448 44.9313 28.2372 45.1488 28.3984 45.3101C28.5596 45.4713 28.7772 45.5636 29.0051 45.5677C29.2331 45.5717 29.4538 45.4871 29.6206 45.3316L29.6231 45.3292L34.3612 40.5911V63.4273C34.3612 63.6606 34.4539 63.8845 34.6189 64.0495C34.784 64.2145 35.0078 64.3073 35.2412 64.3073C35.4746 64.3073 35.6984 64.2145 35.8635 64.0495C36.0285 63.8845 36.1212 63.6606 36.1212 63.4273V40.5911L40.8593 45.3292L40.8618 45.3316C41.0286 45.4871 41.2493 45.5717 41.4773 45.5677C41.7053 45.5636 41.9228 45.4713 42.084 45.3101C42.2452 45.1488 42.3376 44.9313 42.3416 44.7033C42.3456 44.4753 42.261 44.2547 42.1056 44.0879Z" fill="#4C4C4C" stroke="#4C4C4C" stroke-width="0.2"/>
<path d="M45.8522 28.8918L45.8563 28.9016C45.9506 29.0971 46.1138 29.2508 46.3145 29.3332C46.5153 29.4157 46.7394 29.421 46.9439 29.3483C47.1483 29.2755 47.3187 29.1298 47.4222 28.9391C47.5258 28.7483 47.5552 28.5261 47.5048 28.315L47.5017 28.3045C46.9028 26.6281 45.806 25.1746 44.3583 24.1387C42.9106 23.1027 41.181 22.5337 39.401 22.5078H39.3995C39.1661 22.5078 38.9423 22.6005 38.7773 22.7655C38.6122 22.9306 38.5195 23.1544 38.5195 23.3878C38.5195 23.6212 38.6122 23.845 38.7773 24.01C38.9421 24.1749 39.1656 24.2676 39.3987 24.2678C40.8169 24.2905 42.1945 24.7452 43.3476 25.5713C44.5008 26.3976 45.3746 27.556 45.8522 28.8918Z" fill="#4C4C4C" stroke="#4C4C4C" stroke-width="0.2"/>
</g>
</g>
</g>
<defs>
<clipPath id="clip0_1498_4567">
<rect width="61" height="57" fill="white" transform="translate(5.5 7.5)"/>
</clipPath>
<clipPath id="clip1_1498_4567">
<rect width="61" height="57" fill="white" transform="translate(5.5 7.5)"/>
</clipPath>
<clipPath id="clip2_1498_4567">
<rect width="61" height="57" fill="white" transform="translate(5.5 7.5)"/>
</clipPath>
</defs>
</svg>
