<svg width="72" height="72" viewBox="0 0 72 72" fill="none" xmlns="http://www.w3.org/2000/svg">
<rect width="72" height="72" rx="10" fill="white"/>
<g clip-path="url(#clip0_1498_4578)">
<g clip-path="url(#clip1_1498_4578)">
<g clip-path="url(#clip2_1498_4578)">
<path d="M9 12C9 9.23858 11.2386 7 14 7H30.9297C41.9754 7 50.9297 15.9543 50.9297 27V53C50.9297 55.7614 48.6911 58 45.9297 58H29C17.9543 58 9 49.0457 9 38V12Z" fill="#F4F4F4"/>
<path d="M62.6824 35.3158C62.74 26.2955 55.4488 18.91 46.4291 18.8519C37.3971 18.7983 30.0233 26.0855 29.9652 35.1052C29.9234 41.629 33.7265 47.2953 39.2465 49.9553L39.3 64.2053C39.301 64.5113 39.4841 64.7866 39.7655 64.9059C39.8619 64.9472 39.9639 64.9671 40.0648 64.9671C40.2581 64.9671 40.4482 64.8937 40.5936 64.7555L46.246 59.3564L51.9368 64.7178C52.1591 64.9278 52.4864 64.9834 52.7653 64.8626C53.0457 64.7412 53.2267 64.4644 53.2257 64.1584L53.1773 50.0593C58.7487 47.4768 62.6406 41.8519 62.6824 35.3158ZM51.69 62.3841L46.7661 57.7457C46.4704 57.4668 46.0079 57.4683 45.7137 57.7493L40.823 62.4208L40.7786 50.5983C42.4796 51.2132 44.3095 51.5568 46.2185 51.5691C46.2542 51.5691 46.2894 51.5696 46.3251 51.5696C48.1882 51.5696 49.9783 51.2519 51.6492 50.6748L51.69 62.3841ZM46.3251 50.04C46.2935 50.04 46.2603 50.0395 46.2287 50.0395C38.0518 49.9869 31.4423 43.2923 31.4953 35.1149C31.5478 26.9701 38.19 20.381 46.323 20.381C46.3546 20.381 46.3878 20.381 46.4194 20.381C54.5958 20.434 61.2053 27.1287 61.1528 35.3056C61.1008 43.4503 54.4581 50.04 46.3251 50.04Z" fill="#4C4C4C"/>
<path d="M53.7592 32.8596L49.1091 32.1539L47.0564 27.925C46.9294 27.6629 46.6643 27.4962 46.3736 27.4941C46.3736 27.4941 46.3706 27.4941 46.3685 27.4941C46.0794 27.4941 45.8148 27.6573 45.6848 27.9163L43.578 32.1187L38.9213 32.7642C38.6332 32.8045 38.392 33.0044 38.3008 33.2807C38.209 33.5571 38.2819 33.8615 38.4894 34.0659L41.8347 37.3694L41.0108 41.9981C40.9598 42.2846 41.0755 42.5752 41.3101 42.7481C41.5446 42.9209 41.8567 42.9449 42.1152 42.8113L46.2895 40.6505L50.4384 42.8648C50.5516 42.925 50.675 42.9551 50.7984 42.9551C50.9554 42.9551 51.1114 42.9067 51.244 42.8118C51.4806 42.6425 51.6004 42.3534 51.553 42.0659L50.7882 37.427L54.1758 34.1664C54.3853 33.9645 54.4623 33.6611 54.3746 33.3837C54.2854 33.1068 54.0478 32.9034 53.7592 32.8596ZM49.4375 36.6041C49.2565 36.7785 49.1718 37.0308 49.2131 37.2797L49.7913 40.7861L46.6551 39.1117C46.5424 39.0515 46.4185 39.0214 46.2946 39.0214C46.1738 39.0214 46.0534 39.05 45.9433 39.1071L42.7882 40.7402L43.4108 37.2414C43.4551 36.9936 43.3746 36.7402 43.1951 36.5633L40.6666 34.0664L44.1868 33.578C44.4361 33.5433 44.6528 33.3883 44.7655 33.1634L46.3578 29.9874L47.9094 33.1838C48.0195 33.4102 48.2342 33.5683 48.483 33.606L51.9986 34.1393L49.4375 36.6041Z" fill="#4C4C4C"/>
</g>
</g>
</g>
<defs>
<clipPath id="clip0_1498_4578">
<rect width="54" height="58" fill="white" transform="translate(9 7)"/>
</clipPath>
<clipPath id="clip1_1498_4578">
<rect width="54" height="58" fill="white" transform="translate(9 7)"/>
</clipPath>
<clipPath id="clip2_1498_4578">
<rect width="54" height="58" fill="white" transform="translate(9 7)"/>
</clipPath>
</defs>
</svg>
